<svg width="40" height="40" viewBox="0 0 40 40" fill="none" xmlns="http://www.w3.org/2000/svg">
<g clip-path="url(#clip0_293_4816)">
<path d="M6.66675 13.3332C6.66675 11.5651 7.36913 9.86937 8.61937 8.61913C9.86961 7.36888 11.5653 6.6665 13.3334 6.6665H26.6667C28.4349 6.6665 30.1305 7.36888 31.3808 8.61913C32.631 9.86937 33.3334 11.5651 33.3334 13.3332V26.6665C33.3334 28.4346 32.631 30.1303 31.3808 31.3805C30.1305 32.6308 28.4349 33.3332 26.6667 33.3332H13.3334C11.5653 33.3332 9.86961 32.6308 8.61937 31.3805C7.36913 30.1303 6.66675 28.4346 6.66675 26.6665V13.3332Z" stroke="#E4DCCF" stroke-width="2" stroke-linecap="round" stroke-linejoin="round"/>
<path d="M15 20C15 21.3261 15.5268 22.5979 16.4645 23.5355C17.4021 24.4732 18.6739 25 20 25C21.3261 25 22.5979 24.4732 23.5355 23.5355C24.4732 22.5979 25 21.3261 25 20C25 18.6739 24.4732 17.4021 23.5355 16.4645C22.5979 15.5268 21.3261 15 20 15C18.6739 15 17.4021 15.5268 16.4645 16.4645C15.5268 17.4021 15 18.6739 15 20Z" stroke="#E4DCCF" stroke-width="2" stroke-linecap="round" stroke-linejoin="round"/>
<path d="M27.5 12.5V12.5167" stroke="#E4DCCF" stroke-width="2" stroke-linecap="round" stroke-linejoin="round"/>
</g>
<defs>
<clipPath id="clip0_293_4816">
<rect width="40" height="40" fill="white"/>
</clipPath>
</defs>
</svg>
