<svg width="40" height="40" viewBox="0 0 40 40" fill="none" xmlns="http://www.w3.org/2000/svg">
<g clip-path="url(#clip0_205_5880)">
<path d="M23.3334 18.3333H30.0001C30.4421 18.3333 30.866 18.1577 31.1786 17.8452C31.4912 17.5326 31.6667 17.1087 31.6667 16.6667V11.6667C31.6667 11.2246 31.4912 10.8007 31.1786 10.4882C30.866 10.1756 30.4421 10 30.0001 10L25.0001 10C24.5581 10 24.1341 10.1756 23.8216 10.4882C23.509 10.8007 23.3334 11.2246 23.3334 11.6667L23.3334 21.6667C23.3334 26.1117 25.5551 28.8883 30.0001 30" stroke="#CAB82B" stroke-width="5" stroke-linecap="round" stroke-linejoin="round"/>
<path d="M8.33342 18.3333H15.0001C15.4421 18.3333 15.866 18.1577 16.1786 17.8452C16.4912 17.5326 16.6667 17.1087 16.6667 16.6667V11.6667C16.6667 11.2246 16.4912 10.8007 16.1786 10.4882C15.866 10.1756 15.4421 10 15.0001 10L10.0001 10C9.55806 10 9.13413 10.1756 8.82157 10.4882C8.50901 10.8007 8.33342 11.2246 8.33342 11.6667L8.33342 21.6667C8.33342 26.1117 10.5551 28.8883 15.0001 30" stroke="#CAB82B" stroke-width="5" stroke-linecap="round" stroke-linejoin="round"/>
</g>
<defs>
<clipPath id="clip0_205_5880">
<rect width="40" height="40" fill="white" transform="matrix(-1 0 0 1 40 0)"/>
</clipPath>
</defs>
</svg>
