<svg width="40" height="40" viewBox="0 0 40 40" fill="none" xmlns="http://www.w3.org/2000/svg">
<g clip-path="url(#clip0_293_4780)">
<path d="M6.66675 9.99984C6.66675 9.11578 7.01794 8.26794 7.64306 7.64281C8.26818 7.01769 9.11603 6.6665 10.0001 6.6665H30.0001C30.8841 6.6665 31.732 7.01769 32.3571 7.64281C32.9822 8.26794 33.3334 9.11578 33.3334 9.99984V29.9998C33.3334 30.8839 32.9822 31.7317 32.3571 32.3569C31.732 32.982 30.8841 33.3332 30.0001 33.3332H10.0001C9.11603 33.3332 8.26818 32.982 7.64306 32.3569C7.01794 31.7317 6.66675 30.8839 6.66675 29.9998V9.99984Z" stroke="#E4DCCF" stroke-width="2" stroke-linecap="round" stroke-linejoin="round"/>
<path d="M13.3333 18.3335V26.6668" stroke="#E4DCCF" stroke-width="2" stroke-linecap="round" stroke-linejoin="round"/>
<path d="M13.3333 13.3335V13.3502" stroke="#E4DCCF" stroke-width="2" stroke-linecap="round" stroke-linejoin="round"/>
<path d="M20 26.6668V18.3335" stroke="#E4DCCF" stroke-width="2" stroke-linecap="round" stroke-linejoin="round"/>
<path d="M26.6667 26.6668V21.6668C26.6667 20.7828 26.3155 19.9349 25.6904 19.3098C25.0652 18.6847 24.2174 18.3335 23.3333 18.3335C22.4493 18.3335 21.6014 18.6847 20.9763 19.3098C20.3512 19.9349 20 20.7828 20 21.6668" stroke="#E4DCCF" stroke-width="2" stroke-linecap="round" stroke-linejoin="round"/>
</g>
<defs>
<clipPath id="clip0_293_4780">
<rect width="40" height="40" fill="white"/>
</clipPath>
</defs>
</svg>
