<?xml version="1.0" encoding="UTF-8" standalone="no"?>
<!-- Created with Inkscape (http://www.inkscape.org/) -->

<svg
   xmlns:dc="http://purl.org/dc/elements/1.1/"
   xmlns:cc="http://creativecommons.org/ns#"
   xmlns:rdf="http://www.w3.org/1999/02/22-rdf-syntax-ns#"
   xmlns:svg="http://www.w3.org/2000/svg"
   xmlns="http://www.w3.org/2000/svg"
   xmlns:sodipodi="http://sodipodi.sourceforge.net/DTD/sodipodi-0.dtd"
   xmlns:inkscape="http://www.inkscape.org/namespaces/inkscape"
   id="svg2"
   version="1.1"
   inkscape:version="0.91 r13725"
   width="225.58774"
   height="39.883366"
   viewBox="0 0 225.58774 39.883365"
   sodipodi:docname="A Gonçalves Dias (cursive).svg">
  <metadata
     id="metadata8">
    <rdf:RDF>
      <cc:Work
         rdf:about="">
        <dc:format>image/svg+xml</dc:format>
        <dc:type
           rdf:resource="http://purl.org/dc/dcmitype/StillImage" />
        <dc:title></dc:title>
      </cc:Work>
    </rdf:RDF>
  </metadata>
  <defs
     id="defs6" />
  <sodipodi:namedview
     pagecolor="#ffffff"
     bordercolor="#666666"
     borderopacity="1"
     objecttolerance="10"
     gridtolerance="10"
     guidetolerance="10"
     inkscape:pageopacity="0"
     inkscape:pageshadow="2"
     inkscape:window-width="1920"
     inkscape:window-height="1017"
     id="namedview4"
     showgrid="false"
     fit-margin-top="0"
     fit-margin-left="0"
     fit-margin-right="0"
     fit-margin-bottom="0"
     inkscape:zoom="1.546081"
     inkscape:cx="110.97242"
     inkscape:cy="20.296795"
     inkscape:window-x="-8"
     inkscape:window-y="-8"
     inkscape:window-maximized="1"
     inkscape:current-layer="svg2" />
  <path
     style="fill:#ffffff"
     d="m 97.076163,38.613149 c 0.97561,-0.698619 1.80758,-1.238619 1.84883,-1.2 0.47077,0.440748 -1.99162,2.470218 -2.99715,2.470218 -0.45322,0 -0.13691,-0.34989 1.14832,-1.270218 z M 24.899995,32.43446 c 0,-0.614367 0.41354,-1.033185 1.12702,-1.141407 0.68766,-0.104307 4.89122,-3.880321 4.54586,-4.083503 -0.0712,-0.0419 -0.63561,-0.542729 -1.2542,-1.112951 l -1.1247,-1.036769 -1.57199,0.79696 C 23.385435,27.497645 14.395437,31.008416 12.6,31.332656 12.0225,31.436948 10.634881,31.735214 9.516402,31.995473 4.311968,33.206489 0,31.547573 0,28.334287 c 0,-1.557975 0.612765,-2.788665 2.315711,-4.65092 1.955582,-2.138524 4.164178,-3.635568 7.083304,-4.80125 3.839394,-1.533168 7.643027,-1.831117 8.937789,-0.700122 0.639862,0.55893 0.444002,2.831762 -0.377132,4.376372 -0.328934,0.61875 -0.500927,1.125 -0.382206,1.125 0.41718,0 -1.545214,1.533148 -3.177466,2.482441 -2.365552,1.375768 -4.652997,2.256758 -6.417287,2.471561 C 5.402007,28.951571 4.707501,27.8206 6.388837,26.041815 8.17632,24.150731 11.401163,22.378023 13.725,22.009098 c 2.014024,-0.319741 1.552559,0.287059 -1.403675,1.845753 -3.06111,1.613989 -5.579443,3.871551 -4.696646,4.210312 1.15569,0.44348 7.451413,-3.173865 9.316836,-5.353193 2.534496,-2.960988 0.247082,-5.066816 -3.956031,-3.64198 -4.402217,1.492331 -8.192552,4.272553 -9.906908,7.266747 -1.130882,1.975133 -1.206964,2.783266 -0.372377,3.955336 0.767708,1.078146 3.195623,1.647783 5.777966,1.355625 1.970567,-0.222945 7.140302,-1.870209 10.045817,-3.200963 1.036774,-0.474852 2.01767,-0.863368 2.179768,-0.863368 0.162099,0 1.845065,-0.745287 3.739935,-1.656193 3.42449,-1.646237 3.44636,-1.663433 3.63777,-2.860401 0.24494,-1.531787 1.13945,-2.683406 2.08432,-2.683406 0.85738,0 0.86971,0.0562 0.26773,1.220288 -0.3995,0.772561 -0.4028,0.912628 -0.0249,1.057638 0.75933,0.291376 16.25384,-8.459011 17.28542,-9.761782 0.43522,-0.549627 4.08606,-3.1074981 4.47393,-3.1345471 0.2492,-0.01738 0.50097,0.199794 0.5595,0.4826041 0.0745,0.360224 -0.50594,0.908815 -1.93851,1.832007 -2.14791,1.38418 -4.54151,3.452474 -8.04749,6.953793 -1.78029,1.777915 -4.86979,4.634327 -7.82035,7.230327 -1.29417,1.138649 -0.0192,1.333285 3.5637,0.544032 4.70223,-1.035822 6.31887,-1.638321 7.18226,-2.67673 1.32647,-1.595352 9.10737,-7.964293 12.52696,-10.253753 3.65398,-2.446386 5.91737,-3.9958481 8.85,-6.0585056 3.89244,-2.737729 9.68078,-6.052019 12.13231,-6.94671698 3.86261,-1.409676 6.31769,-1.091518 6.31769,0.81871798 0,0.761987 -1.30915,2.430986 -3.03352,3.86735 -0.72406,0.603126 -1.38398,1.200444 -1.46648,1.327374 -0.18334,0.282078 -8.98094,5.9630966 -10.65,6.8771956 -0.66,0.361465 -2.415,1.397805 -3.9,2.302976 -1.485,0.905171 -4.6575,2.600156 -7.05,3.766632 -4.02774,1.963751 -5.48305,2.618008 -10.35,4.653003 -2.08777,0.872956 -3.02151,1.645321 -3.29201,2.723089 -0.52078,2.074934 1.82519,1.473905 10.79201,-2.764876 1.155,-0.54599 3.315,-1.561479 4.8,-2.256643 1.485,-0.695164 2.9025,-1.383821 3.15,-1.530349 0.2475,-0.146528 2.4877,-1.279022 4.97822,-2.516653 3.37274,-1.676045 5.01859,-2.693836 6.45,-3.988676 5.79992,-5.2465751 11.47415,-8.4212446 10.86102,-6.0766236 -0.17149,0.6557645 -2.48525,2.8250626 -4.28924,4.0214386 -3.16326,2.097823 -4.65015,2.986632 -5.92876,3.544007 -1.67984,0.73228 -3.55288,2.162126 -5.62124,4.291158 -1.8807,1.935873 -5.96192,5.541941 -7.35,6.49429 -0.5775,0.396218 -2.08957,1.494218 -3.36015,2.439999 -3.08113,2.293486 -6.19005,3.825184 -8.18115,4.030684 -1.40575,0.145086 -1.61607,0.09415 -1.78302,-0.431865 -0.31362,-0.988131 0.0502,-1.414572 2.19514,-2.573115 2.1636,-1.168613 3.62918,-1.43424 3.62918,-0.657768 0,0.2475 0.0719,0.45 0.15968,0.45 0.39958,0 4.42322,-2.85444 6.63173,-4.704664 1.34277,-1.124934 3.46902,-2.900977 4.725,-3.946761 1.25598,-1.045784 2.28359,-1.956884 2.28359,-2.024667 0,-0.06778 -0.91125,0.355356 -2.025,0.940308 -2.41802,1.269966 -9.85486,4.790798 -13.98731,6.622025 -4.894,2.168699 -8.27335,2.990921 -9.38515,2.283478 -0.19111,-0.121602 -0.44238,-0.727034 -0.55839,-1.345406 -0.11601,-0.618372 -0.29715,-1.121999 -0.40253,-1.119171 -0.10539,0.0028 -1.20412,0.27712 -2.44162,0.609539 -1.2375,0.33242 -3.5325,0.688186 -5.1,0.790593 -2.79447,0.182567 -2.87922,0.210521 -4.35,1.434793 -2.72305,2.266671 -4.49171,3.40305 -5.62836,3.616287 -0.99951,0.187509 -1.12164,0.143385 -1.12164,-0.405261 z M 2.1,30.315464 C 2.1,30.168116 1.878405,29.962526 1.607567,29.858597 1.195825,29.700596 1.177265,29.744495 1.4943,30.1265 1.926338,30.647072 2.1,30.701252 2.1,30.315464 Z m 31.745235,-5.61694 c 1.98517,-1.612626 5.11333,-4.331525 6.63894,-5.770364 0.97877,-0.923108 0.99232,-0.957602 0.16582,-0.42234 -0.495,0.320577 -1.97148,1.086202 -3.28107,1.701388 -1.30958,0.615186 -3.06458,1.570469 -3.9,2.12285 -0.83541,0.552382 -1.89018,1.17202 -2.34393,1.376975 -0.45375,0.204954 -0.825,0.467768 -0.825,0.584031 0,0.364128 1.22874,1.792303 1.54201,1.792303 0.16415,0 1.06561,-0.623179 2.00323,-1.384843 z m 17.77782,-2.185163 c 2.27164,-0.874728 11.39606,-5.315679 11.67664,-5.68314 0.0827,-0.108269 0.68791,-0.445871 1.34498,-0.750224 1.04469,-0.483899 4.27129,-2.436467 8.34916,-5.05247 0.69089,-0.443213 2.08263,-1.2839071 3.09276,-1.8682091 1.95095,-1.1285075 6.0365,-4.3310375 7.3547,-5.7651005 1.93954,-2.110015 1.03676,-3.26104898 -1.8803,-2.39737398 -3.51267,1.04002498 -12.21636,6.27824198 -17.211,10.35824458 -0.825,0.673923 -3.0525,2.401159 -4.95,3.8383 -12.41147,9.400286 -11.87978,8.899836 -7.77694,7.319973 z m 30.80194,-11.536065 c 1.03125,-0.681539 1.875,-1.3481921 1.875,-1.4814521 0,-0.274833 -0.13179,-0.20119 -2.4913,1.3920591 -0.94038,0.634995 -1.7979,1.297104 -1.9056,1.471353 -0.24985,0.404275 0.15388,0.183036 2.5219,-1.38196 z m -19.22499,21.80607 c -0.74887,-0.74886 0.49158,-2.687301 2.79999,-4.37554 3.13559,-2.293187 9.54462,-4.899846 10.26821,-4.176252 0.28903,0.289025 0.283,0.500898 -0.0284,0.999547 -0.37346,0.598001 -0.34831,0.622686 0.45751,0.44914 2.48559,-0.535309 6.75432,-1.129833 7.49972,-1.04452 0.70978,0.08124 0.83583,0.219146 0.75083,0.821515 -0.13012,0.922191 -0.75168,1.444749 -4.21375,3.542571 -1.54875,0.93845 -2.66391,1.75694 -2.47813,1.818866 0.18578,0.06193 2.33043,-0.918141 4.7659,-2.177924 7.45236,-3.854849 11.17812,-4.754953 11.17812,-2.700514 0,0.836398 -1.23297,1.857224 -4.875,4.036188 -1.44375,0.863772 -2.625,1.611054 -2.625,1.660623 0,0.199215 1.47539,-0.304359 3.75,-1.279938 5.034588,-2.15932 5.922528,-2.501232 6.081878,-2.341881 0.0903,0.09032 -1.688238,1.04445 -3.952368,2.120289 -4.41065,2.095803 -6.79528,2.638425 -7.01094,1.595343 -0.10799,-0.522297 1.83934,-2.108145 4.43143,-3.608834 0.7425,-0.429869 1.67729,-1.131927 2.0773,-1.560129 l 0.72729,-0.778549 -0.75752,0 c -1.28847,0 -2.6013,0.540236 -8.51783,3.50514 -5.95317,2.983269 -7.93144,3.571275 -8.16487,2.426871 -0.17245,-0.845433 1.41363,-2.079885 6.5157,-5.071196 0.74033,-0.434052 1.39603,-0.939097 1.4571,-1.122322 0.12032,-0.360957 0.21991,-0.373023 -4.68422,0.56753 -1.70338,0.326688 -3.31091,0.593977 -3.57229,0.593977 -0.26138,0 -1.1627,0.525357 -2.00294,1.16746 -4.728,3.613079 -9.04262,5.767631 -9.87771,4.932539 z m 7.48717,-4.183933 c 1.36653,-0.928203 2.7272,-1.959478 3.02372,-2.291724 0.52707,-0.590593 0.52236,-0.59906 -0.2109,-0.379186 -1.6878,0.506108 -8.7,5.228087 -8.7,5.85854 0,0.376461 3.15492,-1.331778 5.88718,-3.18763 z m 27.187818,3.572215 c -0.51979,-0.100116 -0.675,-0.335445 -0.675,-1.023432 0,-1.119213 2.22005,-3.421048 4.199997,-4.354727 0.7425,-0.350138 2.3625,-1.125746 3.6,-1.723571 2.61049,-1.261104 2.7,-1.277782 2.7,-0.503033 0,0.345928 -0.70236,1.161005 -1.725,2.001822 -0.94875,0.780068 -1.455,1.318031 -1.125,1.195473 0.9664,-0.358907 2.25,-0.571173 2.25,-0.372076 0,0.37029 -2.42384,1.699942 -3.74107,2.052247 -1.82438,0.487947 -2.3667,0.0195 -1.25938,-1.087802 1.14459,-1.144598 0.62159,-0.939606 -1.21212,0.475088 -1.473697,1.136952 -2.187427,1.960395 -2.187427,2.523675 0,0.321543 3.657257,-0.07918 3.870417,-0.424077 0.11236,-0.181818 0.60153,-0.211002 1.23292,-0.07356 l 1.04666,0.227841 -1.35,0.382827 c -0.7425,0.210555 -1.7414,0.502569 -2.21977,0.648924 -0.88209,0.269868 -2.178907,0.290577 -3.405227,0.05438 z m 52.293677,-0.05806 c -0.27578,-0.44622 1.83119,-2.076783 3.20135,-2.477493 1.15746,-0.338505 3.34694,-1.735756 3.10268,-1.980022 -0.0547,-0.0547 -1.63469,0.524383 -3.51109,1.286852 -6.59635,2.680418 -8.41714,3.052343 -8.60203,1.757093 -0.12297,-0.861513 2.45026,-3.150346 4.34301,-3.863 0.79607,-0.299735 1.71369,-0.726926 2.03915,-0.949312 0.70983,-0.485021 1.54864,-0.524398 1.81993,-0.08544 0.36276,0.586948 -0.77506,1.408042 -3.08996,2.229849 -3.50557,1.244501 -5.64407,3.16322 -2.8178,2.528201 1.34889,-0.303075 8.4908,-3.160573 10.73965,-4.296958 0.84896,-0.428997 1.61978,-0.779996 1.71294,-0.779996 0.0931,0 1.01855,-0.538717 2.05643,-1.19715 1.8597,-1.17979 2.74703,-1.453021 3.06228,-0.942944 0.22481,0.363758 -0.61523,1.04146 -2.39771,1.934338 -0.83736,0.419454 -2.59632,1.689059 -3.90877,2.821345 -3.55288,3.065142 -7.17671,4.942335 -7.75006,4.014633 z m 41.04154,-0.498825 c -0.46814,-0.714474 -0.46897,-0.841242 -0.0118,-1.8 0.27051,-0.56727 0.59527,-1.037016 0.72169,-1.043885 0.12642,-0.0069 0.74739,-0.469681 1.37994,-1.028472 0.96886,-0.855897 1.03977,-0.991796 0.45,-0.862472 -0.38505,0.08443 -0.97008,0.277224 -1.30008,0.428426 -0.87655,0.40162 -6.34818,1.475006 -7.51892,1.475006 -0.55157,0 -1.32712,-0.147741 -1.72343,-0.328313 -0.58403,-0.266104 -0.96108,-0.20561 -1.98993,0.319267 -1.85605,0.946885 -8.30101,3.023491 -10.01301,3.226252 -1.41397,0.167463 -1.46145,0.149352 -1.14731,-0.437625 0.34476,-0.644184 3.45663,-3.478562 6.48993,-5.911202 0.98853,-0.792784 1.97128,-1.689773 2.18389,-1.993309 1.26537,-1.806576 -6.65614,3.241372 -9.69737,6.179601 -1.10744,1.069932 -2.0631,1.945329 -2.12369,1.945329 -0.93082,0 2.51973,-3.624009 5.10776,-5.364532 0.64237,-0.432007 1.72237,-1.157677 2.4,-1.6126 0.67764,-0.454922 2.37957,-1.380483 3.78207,-2.0568 1.4025,-0.676318 2.78122,-1.434232 3.06382,-1.684252 0.68871,-0.609294 1.43695,-0.29958 1.22592,0.507427 -0.25174,0.962638 -5.19613,5.763103 -7.4975,7.279251 -2.21105,1.456649 -3.45857,2.63807 -2.34224,2.218145 0.33,-0.124134 2.0175,-0.697908 3.75,-1.275051 1.7325,-0.57714 3.84031,-1.373585 4.68403,-1.769874 1.3298,-0.624603 1.55676,-0.860594 1.70476,-1.772657 0.30941,-1.906687 3.14776,-5.354925 6.31262,-7.669056 0.7898,-0.5775 1.79883,-1.332161 2.24229,-1.677024 2.31034,-1.79662 8.2114,-4.622975 9.65223,-4.622975 0.35395,0 0.90468,0.13975 1.22383,0.310555 1.81591,0.971843 -0.84976,4.42472 -6.70836,8.689444 -2.01061,1.463607 -3.67803,2.400107 -8.76136,4.920795 -2.4602,1.219945 -3.16316,1.689411 -2.76231,1.84476 0.71601,0.277484 3.05576,-0.0515 5.54056,-0.779044 3.79392,-1.11085 5.9207,-1.745017 7.93448,-2.365926 3.58466,-1.105257 4.40257,-0.552897 1.42399,0.961659 -4.27146,2.171961 -6.88672,4.098793 -6.88672,5.073883 0,1.240293 3.88891,0.316359 9.14386,-2.172416 1.65338,-0.78305 4.15364,-1.89612 5.55614,-2.47349 1.4025,-0.57737 3.22051,-1.390752 4.04002,-1.807515 1.48826,-0.75686 1.96327,-0.78357 1.95627,-0.11 -0.003,0.322751 -1.83861,1.707294 -2.26307,1.707294 -0.0964,0 -1.17596,0.6075 -2.39911,1.35 -1.22314,0.7425 -2.29934,1.35 -2.39155,1.35 -0.0922,0 -0.45746,0.27 -0.81167,0.6 -0.68464,0.637839 -0.55948,0.775635 0.29818,0.328287 0.28651,-0.149439 1.38002,-0.636393 2.43001,-1.082116 1.05,-0.445723 2.15821,-1.02372 2.46271,-1.284437 0.3045,-0.260717 1.38455,-0.932874 2.40012,-1.493682 1.39085,-0.768042 1.93059,-0.934273 2.18729,-0.673655 0.41404,0.420358 -0.0367,0.793027 -2.8092,2.322868 -1.94705,1.074342 -3.6,2.377816 -3.6,2.838862 0,1.123896 9.1125,-2.240584 12.64213,-4.667675 2.27019,-1.561068 3.5631,-2.255659 4.23287,-2.274042 0.81278,-0.02231 0.61972,0.564659 -0.3,0.912101 -1.12577,0.42528 -2.37299,1.656684 -3.31554,3.273489 -1.19587,2.051316 -2.46017,2.893998 -4.92704,3.283959 -1.29348,0.204471 -1.59385,0.154608 -2.09647,-0.348006 -0.58223,-0.582228 -0.60251,-0.580797 -2.67847,0.188688 -1.15049,0.426447 -2.40505,0.775359 -2.78791,0.775359 -0.88432,0 -1.47397,-0.698457 -1.23234,-1.459752 0.16219,-0.511038 -0.21493,-0.414168 -2.86375,0.735606 -3.36764,1.461789 -4.17348,1.611066 -4.17348,0.773106 0,-0.344358 0.78789,-1.09428 2.10062,-1.999383 1.15533,-0.796591 2.05527,-1.493684 1.99986,-1.549097 -0.0554,-0.05541 -1.06856,0.370256 -2.25145,0.94593 -3.23973,1.576685 -5.56119,2.512289 -7.46211,3.007415 -2.49051,0.648696 -3.28361,0.582732 -3.8767,-0.322428 z m 27.24077,-2.112909 c 0.38223,-0.236229 1.1988,-1.918365 0.93171,-1.919321 -0.54909,-0.002 -2.7827,1.382908 -2.7827,1.725317 0,0.228612 -0.4401,0.387216 -1.125,0.40542 -0.97228,0.02583 -1.02319,0.05909 -0.375,0.244908 0.68785,0.197187 2.74737,-0.08327 3.35099,-0.456324 z m -29.90099,-4.969703 c 5.44503,-2.722378 12.30161,-8.063075 13.12997,-10.227142 0.21305,-0.556576 0.13333,-0.5899 -1.08319,-0.452781 -1.73631,0.195708 -4.28607,1.409172 -7.3264,3.486731 -1.36379,0.931925 -2.74718,1.841679 -3.07421,2.021675 -1.22213,0.67268 -5.14375,4.501208 -5.85657,5.717553 -1.0401,1.77478 -0.93947,2.016407 0.5354,1.285639 0.70125,-0.347454 2.355,-1.171708 3.675,-1.831675 z m -73.05,7.015989 c 0,-0.371976 0.67867,-1.221669 1.70989,-2.140776 1.96822,-1.754256 1.73922,-2.019906 -0.40213,-0.466474 -1.8229,1.32241 -4.11493,2.420566 -5.58276,2.674807 -0.98501,0.17061 -1.125,0.121368 -1.125,-0.395718 0,-0.324816 0.36832,-1.028307 0.8185,-1.563309 l 0.8185,-0.972733 -0.8185,0.205431 c -0.45018,0.112987 -0.81818,0.101609 -0.81779,-0.02528 6e-4,-0.216467 0.7169,-0.6115 4.79929,-2.647042 0.9075,-0.452492 2.16641,-1.080738 2.79757,-1.396101 1.31399,-0.656535 2.24937,-0.613782 2.71175,0.123945 0.25066,0.399918 0.17552,0.665943 -0.34436,1.219335 -0.36573,0.389295 -0.66496,0.77018 -0.66496,0.846405 0,0.07623 0.54,0.0871 1.2,0.02415 1.44427,-0.137733 1.53583,0.246519 0.28612,1.200766 -0.50264,0.3838 -1.34639,1.070558 -1.875,1.526135 l -0.96112,0.828315 0.9,-0.331488 c 6.8899,-2.537687 9.56531,-3.881069 12.3,-6.176107 8.22986,-6.906765 19.74905,-15.1944071 24.12494,-17.3570266 2.56947,-1.269867 3.79581,-1.353903 4.27909,-0.293229 0.28405,0.623421 0.2453,0.855896 -0.23143,1.388576 -1.50204,1.6783025 -6.96042,5.3668566 -14.15479,9.5652316 -1.2748,0.743924 -2.65531,1.568053 -3.06781,1.831398 -0.99131,0.632866 -8.02256,4.790836 -9.07343,5.365626 -1.58861,0.86892 -3.88807,2.862819 -4.78191,4.146469 -0.49637,0.712846 -0.8387,1.35988 -0.76072,1.437859 0.078,0.07798 0.59724,-0.05695 1.15392,-0.299832 0.55668,-0.242883 2.56464,-1.092418 4.46214,-1.887857 1.8975,-0.795439 4.23587,-1.963253 5.19639,-2.595142 1.55596,-1.023612 2.60461,-1.259494 2.60307,-0.585526 -2.9e-4,0.128929 -0.60779,0.618062 -1.35,1.086963 -1.0945,0.691469 -1.34946,1.017387 -1.34946,1.725001 0,0.479849 0.10216,0.872452 0.22701,0.872452 0.12486,0 1.55801,-0.749837 3.18479,-1.666305 1.66862,-0.940039 3.23683,-1.625398 3.59799,-1.572448 0.48883,0.07166 0.17911,0.34705 -1.30979,1.164616 -3.9321,2.159144 -6.45586,3.698985 -6.68991,4.08177 -0.13195,0.215802 -0.40195,0.39537 -0.6,0.399039 -0.19805,0.0037 -0.69759,0.270666 -1.11009,0.593328 -0.4125,0.322662 -0.91875,0.589659 -1.125,0.593328 -0.77891,0.01386 -0.32659,-0.818085 0.975,-1.793328 1.12688,-0.844335 1.35,-1.176501 1.35,-2.009782 l 0,-0.99827 -1.125,0.483807 c -0.61875,0.266094 -1.4625,0.590355 -1.875,0.720581 -0.60645,0.191456 -6.85788,3.077905 -7.5308,3.477169 -0.0995,0.059 -0.40861,-0.0593 -0.68704,-0.262893 -0.47491,-0.347262 -0.47493,-0.434841 -2.9e-4,-1.415391 0.27828,-0.574872 0.71037,-1.282298 0.96021,-1.57206 0.75312,-0.873479 0.19915,-0.912973 -1.33684,-0.0953 -0.79775,0.424679 -1.5448,0.772144 -1.66009,0.772144 -0.1153,0 -1.38436,0.54522 -2.82014,1.211598 -1.43578,0.666381 -3.19877,1.292229 -3.91776,1.390779 -1.17721,0.16135 -1.30725,0.11782 -1.30725,-0.437606 z m -1.41976,-1.905711 c 2.26255,-1.154262 3.48856,-2.091295 3.31796,-2.535885 -0.26439,-0.688964 -0.67443,-0.50997 -2.84002,1.239754 -2.63058,2.125406 -2.75271,2.456636 -0.47794,1.296131 z m 24.40008,-9.137941 c 0.80832,-0.428383 1.60468,-0.882818 1.76968,-1.009854 0.165,-0.127037 0.975,-0.605815 1.8,-1.063951 4.63137,-2.57188 6.79374,-3.911054 12.37902,-7.666428 3.67954,-2.4740096 4.88212,-3.6897446 4.26263,-4.3092386 -0.57379,-0.573791 -4.23358,1.532094 -11.39165,6.5548896 -3.25232,2.282145 -10.78037,8.273461 -10.39555,8.273461 0.0584,0 0.76754,-0.350495 1.57587,-0.778879 z"
     id="path4138"
     inkscape:connector-curvature="0" />
</svg>
